HIERARCHY
ROOT Hips
{
    OFFSET 0.000000 0.000000 0.000000
    CHANNELS 6 Xposition Yposition Zposition Zrotation Xrotation Yrotation
    JOINT Spine
    {
        OFFSET -0.000000 7.236184 0.000000
        CHANNELS 3 Zrotation Xrotation Yrotation
        JOINT Spine1
        {
            OFFSET -0.000000 20.420147 0.000000
            CHANNELS 3 Zrotation Xrotation Yrotation
            JOINT Neck
            {
                OFFSET -0.000000 20.336288 1.848754
                CHANNELS 3 Zrotation Xrotation Yrotation
                JOINT Head
                {
                    OFFSET -0.000000 12.354461 -1.764923
                    CHANNELS 3 Zrotation Xrotation Yrotation
                    End Site
                    {
                        OFFSET -0.000000 22.061537 0.000000
                    }
                }
            }
            JOINT LeftShoulder
            {
                OFFSET 3.573296 18.396038 -0.314103
                CHANNELS 3 Zrotation Xrotation Yrotation
                JOINT LeftArm
                {
                    OFFSET 10.880760 0.000000 0.000000
                    CHANNELS 3 Zrotation Xrotation Yrotation
                    JOINT LeftForeArm
                    {
                        OFFSET 27.185530 0.000000 0.000000
                        CHANNELS 3 Zrotation Xrotation Yrotation
                        JOINT LeftHand
                        {
                            OFFSET 27.825975 0.000000 0.000000
                            CHANNELS 3 Zrotation Xrotation Yrotation
                            End Site
                            {
                                OFFSET 13.236923 0.000000 0.000000
                            }
                        }
                    }
                }
            }
            JOINT RightShoulder
            {
                OFFSET -3.474926 18.396038 -0.314103
                CHANNELS 3 Zrotation Xrotation Yrotation
                JOINT RightArm
                {
                    OFFSET -10.880760 0.000000 0.000000
                    CHANNELS 3 Zrotation Xrotation Yrotation
                    JOINT RightForeArm
                    {
                        OFFSET -27.185530 0.000000 0.000000
                        CHANNELS 3 Zrotation Xrotation Yrotation
                        JOINT RightHand
                        {
                            OFFSET -27.825975 0.000000 0.000000
                            CHANNELS 3 Zrotation Xrotation Yrotation
                            End Site
                            {
                                OFFSET -13.236923 0.000000 0.000000
                            }
                        }
                    }
                }
            }
        }
    }
    JOINT LeftUpLeg
    {
        OFFSET 8.824615 0.000000 0.000000
        CHANNELS 3 Zrotation Xrotation Yrotation
        JOINT LeftLeg
        {
            OFFSET -0.000000 -35.111282 0.000000
            CHANNELS 3 Zrotation Xrotation Yrotation
            JOINT LeftFoot
            {
                OFFSET -0.000000 -42.324711 0.000000
                CHANNELS 3 Zrotation Xrotation Yrotation
                JOINT LeftToeBase
                {
                    OFFSET -0.000000 -5.735999 13.236923
                    CHANNELS 3 Zrotation Xrotation Yrotation
                    End Site
                    {
                        OFFSET -0.000000 0.000000 3.529846
                    }
                }
            }
        }
    }
    JOINT RightUpLeg
    {
        OFFSET -8.824615 0.000000 0.000000
        CHANNELS 3 Zrotation Xrotation Yrotation
        JOINT RightLeg
        {
            OFFSET -0.000000 -35.111282 0.000000
            CHANNELS 3 Zrotation Xrotation Yrotation
            JOINT RightFoot
            {
                OFFSET -0.000000 -42.324711 0.000000
                CHANNELS 3 Zrotation Xrotation Yrotation
                JOINT RightToeBase
                {
                    OFFSET -0.000000 -5.735999 13.236923
                    CHANNELS 3 Zrotation Xrotation Yrotation
                    End Site
                    {
                        OFFSET -0.000000 0.000000 3.529846
                    }
                }
            }
        }
    }
}
MOTION
Frames:    12
Frame Time:    0.008333
9.232072    80.610237    107.559296    0.481124    -11.520460    -173.028259    -2.287621    -11.926975    0.168594    0.945104    3.646415    0.377642    2.274024    7.475973    -3.177580    5.428812    -7.785989    -2.357703    -0.450595    17.006960    0.908575    -52.292603    37.641006    -35.589016    0.310494    -5.236949    -15.004321    18.834204    -4.910249    1.731004    6.210296    18.424896    -7.391914    44.363159    45.685246    33.737488    -1.750890    -7.048247    20.401903    -17.640015    -6.106875    -4.074721    12.442584    -23.038389    2.433446    0.819651    21.310719    -1.400741    -12.590504    -8.042784    -13.860797    -0.148172    -0.650376    0.164437    -15.481896    -5.989954    -8.030196    3.028927    1.721983    -6.191913    11.996834    -2.264277    -9.852485    -0.718533    0.904918    0.776191    
9.200546    80.564957    107.506218    0.629050    -11.480050    -172.897736    -2.240526    -11.876367    0.165783    0.984628    3.635210    0.367618    2.322666    7.454735    -3.229492    5.476263    -7.798604    -2.405676    -0.453407    17.043077    0.932586    -52.408546    37.525093    -35.570114    0.332843    -5.236482    -14.907269    18.785973    -4.908751    1.725833    6.191586    18.382980    -7.375335    44.358135    45.664619    33.627884    -1.741891    -7.081285    20.367657    -17.663769    -6.137880    -4.096452    12.501933    -23.426590    2.377366    0.913576    22.044905    -1.402509    -12.463828    -8.304498    -13.974336    -0.169234    -0.734151    0.187840    -15.383313    -5.894408    -8.118552    3.059069    1.754731    -6.139141    12.024623    -2.314715    -9.902326    -0.740718    0.924158    0.800136
9.159680    80.516228    107.453773    0.786107    -11.434393    -172.767624    -2.187917    -11.822634    0.162481    1.031027    3.626457    0.356375    2.376568    7.431875    -3.280161    5.525373    -7.814845    -2.452276    -0.452032    17.080359    0.956030    -52.516270    37.421207    -35.557068    0.354416    -5.229544    -14.812776    18.739746    -4.901618    1.715932    6.176676    18.339460    -7.357852    44.351910    45.631355    33.506348    -1.735599    -7.122270    20.334829    -17.681496    -6.176962    -4.115649    12.561218    -23.827700    2.302719    1.008375    22.809895    -1.394120    -12.316586    -8.574286    -14.084761    -0.199894    -0.830053    0.221910    -15.282240    -5.800107    -8.207427    3.088474    1.797375    -6.083554    12.059813    -2.366045    -9.951615    -0.761936    0.940455    0.823038
9.108487    80.463509    107.401230    0.954330    -11.382147    -172.636871    -2.129077    -11.765162    0.158557    1.085613    3.620909    0.343820    2.437447    7.406682    -3.329982    5.576048    -7.834683    -2.498158    -0.446389    17.118685    0.978886    -52.616619    37.328876    -35.549995    0.374491    -5.215919    -14.720477    18.693066    -4.888850    1.701082    6.166077    18.293894    -7.340008    44.343689    45.584690    33.371243    -1.732550    -7.171098    20.304075    -17.695107    -6.223776    -4.132694    12.621202    -24.242514    2.209045    1.104503    23.609856    -1.377704    -12.149757    -8.855237    -14.190774    -0.239237    -0.935773    0.265636    -15.177090    -5.704810    -8.297732    3.116812    1.849526    -6.023898    12.103443    -2.418266    -10.000783    -0.781858    0.953512    0.844543
9.045768    80.406830    107.348633    1.132244    -11.325202    -172.506241    -2.066177    -11.706547    0.154277    1.149533    3.619809    0.329745    2.506527    7.378640    -3.378987    5.627615    -7.858001    -2.543585    -0.436780    17.157595    1.000491    -52.709843    37.248081    -35.548542    0.392636    -5.195275    -14.630857    18.643681    -4.870159    1.681333    6.160168    18.245840    -7.322340    44.333218    45.523609    33.221611    -1.733124    -7.227189    20.275988    -17.705973    -6.277588    -4.147615    12.678622    -24.670801    2.096128    1.202602    24.441845    -1.352793    -11.967902    -9.147581    -14.291791    -0.285014    -1.046555    0.316529    -15.070525    -5.610373    -8.390697    3.144051    1.911240    -5.959840    12.156363    -2.470443    -10.049045    -0.800336    0.962877    0.864491
8.970933    80.346306    107.295609    1.320809    -11.261374    -172.376450    -1.998411    -11.645877    0.149653    1.224432    3.624776    0.314713    2.583503    7.346659    -3.427333    5.680768    -7.884172    -2.588635    -0.424434    17.195398    1.020051    -52.795292    37.180038    -35.551819    0.408357    -5.167569    -14.544960    18.589602    -4.845522    1.656929    6.158839    18.194448    -7.306030    44.320866    45.447319    33.057034    -1.737767    -7.289327    20.250750    -17.715588    -6.337037    -4.160717    12.734415    -25.106560    1.966224    1.302888    25.300093    -1.323332    -11.776475    -9.451485    -14.385430    -0.334682    -1.157327    0.371764    -14.960877    -5.514205    -8.484926    3.169100    1.980771    -5.891808    12.219221    -2.521098    -10.095821    -0.817184    0.968169    0.882683
8.882776    80.282242    107.242355    1.517716    -11.192822    -172.249008    -1.928641    -11.586067    0.144959    1.312223    3.637598    0.299078    2.667496    7.308927    -3.475412    5.736391    -7.911609    -2.633532    -0.411288    17.230242    1.036380    -52.872864    37.125095    -35.558056    0.421277    -5.132281    -14.463733    18.529278    -4.814455    1.628123    6.161892    18.138660    -7.292686    44.307205    45.354332    32.877014    -1.746743    -7.355885    20.228136    -17.725304    -6.400353    -4.172203    12.784584    -25.547909    1.820736    1.406631    26.178652    -1.290521    -11.580078    -9.765856    -14.471065    -0.386764    -1.264852    0.429702    -14.851694    -5.418763    -8.580430    3.192113    2.057752    -5.820771    12.292635    -2.568248    -10.139737    -0.832007    0.968644    0.898693
8.780466    80.215012    107.188965    1.721486    -11.120192    -172.125488    -1.858922    -11.528507    0.140840    1.415421    3.659977    0.283254    2.757198    7.264008    -3.523611    5.795103    -7.939586    -2.678586    -0.400247    17.259691    1.048028    -52.941357    37.083904    -35.565231    0.430684    -5.088990    -14.388218    18.461630    -4.776600    1.594883    6.168537    18.077461    -7.283777    44.293480    45.242825    32.681252    -1.760328    -7.424964    20.207441    -17.736122    -6.465500    -4.182460    12.826810    -25.990648    1.663254    1.515706    27.070194    -1.257594    -11.382513    -10.088985    -14.548381    -0.440502    -1.366837    0.489498    -14.744874    -5.325043    -8.675742    3.212790    2.141318    -5.748281    12.377158    -2.609706    -10.179458    -0.844439    0.963705    0.912128
8.663340    80.145004    107.135521    1.930395    -11.044358    -172.007645    -1.790951    -11.474455    0.137344    1.534889    3.692999    0.268044    2.851806    7.210222    -3.572204    5.858039    -7.966746    -2.723899    -0.392309    17.281748    1.054051    -53.000793    37.057278    -35.571388    0.436250    -5.037303    -14.319418    18.386156    -4.731566    1.557521    6.178636    18.010176    -7.280990    44.281006    45.111408    32.470089    -1.778693    -7.494789    20.187733    -17.748819    -6.530653    -4.191502    12.858775    -26.430380    1.498899    1.632775    27.966827    -1.229741    -11.186712    -10.418946    -14.616798    -0.495786    -1.462205    0.551028    -14.642651    -5.234341    -8.768578    3.231002    2.231108    -5.675756    12.473567    -2.643754    -10.214183    -0.854446    0.952234    0.922952
8.529927    80.072136    107.081734    2.144243    -10.965384    -171.896744    -1.725482    -11.424183    0.135138    1.671411    3.737252    0.253419    2.952349    7.146787    -3.621503    5.926107    -7.993051    -2.769727    -0.387660    17.295391    1.054073    -53.051788    37.045414    -35.575153    0.437693    -4.976210    -14.257635    18.302267    -4.678351    1.515876    6.192759    17.936354    -7.285070    44.270973    44.956474    32.242195    -1.801514    -7.564112    20.167755    -17.763683    -6.594677    -4.198917    12.878473    -26.864979    1.333674    1.763051    28.866102    -1.213279    -10.994171    -10.755727    -14.677272    -0.553086    -1.550864    0.614813    -14.546512    -5.147353    -8.856204    3.246891    2.328166    -5.604011    12.583336    -2.669449    -10.243829    -0.861660    0.932944    0.930768
8.381232    79.997658    107.028282    2.359027    -10.884961    -171.795944    -1.663997    -11.378096    0.134564    1.822004    3.791026    0.240033    3.058961    7.073233    -3.670796    5.998405    -8.016397    -2.815700    -0.385339    17.299946    1.048012    -53.094597    37.048569    -35.575104    0.434460    -4.905844    -14.203826    18.211742    -4.616981    1.470829    6.211756    17.857304    -7.296784    44.265194    44.777576    32.000061    -1.828350    -7.630827    20.146669    -17.779720    -6.655828    -4.203535    12.883852    -27.285294    1.177158    1.909818    29.750362    -1.214934    -10.808854    -11.093575    -14.730124    -0.611947    -1.630728    0.680343    -14.459873    -5.066854    -8.934041    3.260380    2.432883    -5.534195    12.706276    -2.686069    -10.268606    -0.866085    0.904712    0.935584
8.215208    79.921303    106.974792    2.575315    -10.803512    -171.706360    -1.606763    -11.335616    0.135612    1.987029    3.853170    0.228398    3.173450    6.988946    -3.720345    6.076011    -8.036897    -2.862037    -0.384262    17.295109    1.035746    -53.131268    37.066963    -35.569309    0.426635    -4.824967    -14.158195    18.114557    -4.546153    1.422699    6.236664    17.773409    -7.316862    44.264812    44.569454    31.741964    -1.858370    -7.694181    20.122869    -17.795811    -6.713764    -4.203712    12.873533    -27.691673    1.035145    2.078728    30.620792    -1.240284    -10.630945    -11.433799    -14.777026    -0.672887    -1.702216    0.748194    -14.384412    -4.994889    -8.999198    3.271697    2.548914    -5.465999    12.844706    -2.693357    -10.288837    -0.867241    0.864948    0.936883
